PathFileType	4	(X/Y/Z)	C:/Users/opensim2020/Desktop/walking_exp_matlab/subject02_walking08_straight_03.trc	
DataRate	CameraRate	NumFrames	NumMarkers	Units	OrigDataRate	OrigDataStartFrame	OrigNumFrames	
100.00	100.00	7	41	mm	100.00	2215	252	
Frame#	Time	LFHD			RFHD			LBHD			RBHD			C7			T10			CLAV			STRN			RBAK			LSHO			LUPA			LELB			LFRM			LWRA			LWRB			LFIN			RSHO			RUPA			RELB			RFRM			RWRA			RWRB			RFIN			LASI			RASI			LPSI			RPSI			LTHI			LKNE			LTIB			LANK			LHEE			LTOE			RTHI			RKNE			RTIB			RANK			RHEE			RTOE			*39			*40			
		X1	Y1	Z1	X2	Y2	Z2	X3	Y3	Z3	X4	Y4	Z4	X5	Y5	Z5	X6	Y6	Z6	X7	Y7	Z7	X8	Y8	Z8	X9	Y9	Z9	X10	Y10	Z10	X11	Y11	Z11	X12	Y12	Z12	X13	Y13	Z13	X14	Y14	Z14	X15	Y15	Z15	X16	Y16	Z16	X17	Y17	Z17	X18	Y18	Z18	X19	Y19	Z19	X20	Y20	Z20	X21	Y21	Z21	X22	Y22	Z22	X23	Y23	Z23	X24	Y24	Z24	X25	Y25	Z25	X26	Y26	Z26	X27	Y27	Z27	X28	Y28	Z28	X29	Y29	Z29	X30	Y30	Z30	X31	Y31	Z31	X32	Y32	Z32	X33	Y33	Z33	X34	Y34	Z34	X35	Y35	Z35	X36	Y36	Z36	X37	Y37	Z37	X38	Y38	Z38	X39	Y39	Z39	X40	Y40	Z40	X41	Y41	Z41	

1	0.000	-1103.10229	-1140.66821	1686.34326	-963.56970	-1187.01196	1669.74121	-1152.33899	-1269.33179	1636.06030	-1023.38031	-1330.11670	1620.02612	-1085.13586	-1379.51746	1510.03772	-1075.02625	-1466.98376	1237.49097	-1087.15515	-1249.38098	1425.48401	-1078.19702	-1217.85474	1250.16821	-1020.71875	-1463.16626	1340.84058	-1258.06458	-1309.24402	1475.72705	-1365.24890	-1306.67834	1291.99109	-1406.56506	-1279.23169	1157.93677	-1436.70813	-1221.59387	1042.20898	-1422.81653	-1121.17517	950.23853	-1451.94360	-1163.84827	934.29321	-1467.30200	-1118.92249	889.60516	-895.30890	-1315.57068	1466.77173	-811.28394	-1372.56677	1282.87769	-790.01135	-1377.42749	1137.06592	-765.20697	-1356.51343	1019.35059	-776.73755	-1309.56665	891.18665	-749.88501	-1360.11621	889.63470	-741.64264	-1324.36719	826.25537	-1205.19751	-1263.06580	953.02423	-949.14966	-1255.53259	951.95410	-1118.47888	-1465.93665	1016.00171	-1003.48090	-1469.89172	1016.83447	-1245.99231	-1390.27271	655.34448	-1214.36536	-1465.26733	463.97092	-1211.43896	-1561.35498	292.98941	-1176.78320	-1599.42700	70.11054	-1123.98743	-1635.75159	45.06908	-1200.97815	-1448.56091	24.65310	-861.22760	-1268.50525	666.00824	-891.78442	-1189.29626	472.36194	-872.15234	-1162.08691	288.43506	-892.07434	-1105.29749	101.04808	-947.75647	-1116.93640	37.59953	-884.49158	-941.55371	87.77628	-1042.25903	-1248.29016	1769.92212	-3357.15649	2845.85596	1034.15771 
2	0.010	-1100.56201	-1134.64612	1685.90601	-961.47876	-1181.31604	1668.79028	-1150.51904	-1262.92883	1635.11035	-1021.75702	-1324.04065	1618.23230	-1084.07910	-1372.70984	1508.78955	-1074.31604	-1460.40698	1236.45056	-1085.99756	-1242.29956	1424.10315	-1079.20117	-1213.00500	1248.43848	-1020.09540	-1456.33911	1339.42151	-1256.90112	-1301.53723	1474.37537	-1362.96313	-1300.07532	1290.15967	-1402.63416	-1273.71545	1155.33191	-1431.43188	-1216.42419	1038.81030	-1415.00806	-1115.36865	946.15906	-1445.45532	-1159.12036	930.52271	-1459.75732	-1114.30176	885.37408	-894.04828	-1309.16248	1464.93188	-810.55139	-1367.75452	1281.47876	-789.13843	-1373.61047	1135.83997	-763.87823	-1353.13623	1017.99634	-774.97308	-1307.00391	889.64905	-748.59747	-1357.32349	888.37061	-740.02130	-1321.80310	824.87250	-1204.68311	-1257.23560	951.69916	-948.44000	-1249.27844	950.55902	-1117.74341	-1459.73035	1014.75745	-1002.82043	-1463.77380	1015.49103	-1245.59180	-1385.66028	654.43274	-1214.17981	-1461.71423	463.48370	-1211.60913	-1559.00964	293.64975	-1177.02209	-1599.50684	71.08492	-1123.86340	-1635.52148	45.85247	-1201.09155	-1447.97986	24.77698	-860.60083	-1262.43408	664.55286	-891.70422	-1183.56226	470.77463	-872.80646	-1155.58691	286.89761	-892.92615	-1097.67822	100.13444	-949.37701	-1108.06824	36.64366	-883.28680	-934.00616	87.38464	-1039.94861	-1242.97168	1768.57617	-3360.27539	2845.20264	1034.20898 
3	0.020	-1097.88733	-1128.44897	1685.45044	-958.95557	-1175.67090	1667.91003	-1148.53284	-1256.29187	1634.13391	-1020.04395	-1317.80273	1616.64490	-1082.85510	-1365.34839	1507.32373	-1073.50952	-1453.64209	1235.42969	-1084.48083	-1235.45764	1422.65051	-1075.63513	-1204.37415	1246.92822	-1019.40198	-1449.64270	1338.46741	-1255.66467	-1293.73950	1473.12830	-1360.32446	-1293.42676	1288.07886	-1398.35022	-1268.15344	1152.47766	-1425.97937	-1211.50879	1035.36902	-1408.06909	-1111.10291	942.23737	-1438.92859	-1154.95264	926.72333	-1452.04041	-1110.11292	880.93988	-892.65942	-1302.89441	1463.32715	-809.78888	-1362.33716	1280.15698	-788.10107	-1368.89832	1134.50488	-762.79938	-1349.47437	1016.54803	-773.31824	-1303.46350	888.06702	-747.12994	-1354.55713	887.05341	-738.30841	-1319.26208	823.39136	-1204.22742	-1251.17957	950.39429	-947.71393	-1242.70667	949.16858	-1116.84460	-1453.44080	1013.59247	-1002.09924	-1457.47009	1014.18420	-1243.95288	-1382.75940	654.89752	-1213.74341	-1458.07397	463.09778	-1211.30261	-1556.60193	293.90259	-1176.63513	-1598.72937	71.49846	-1123.47839	-1635.05945	46.39154	-1201.21118	-1447.92859	24.72577	-859.76892	-1256.15515	663.10242	-891.57599	-1177.46912	469.23337	-873.33789	-1149.29907	285.43292	-893.88843	-1090.92224	98.82693	-950.87158	-1100.59131	35.52856	-882.15460	-927.39594	86.36424	-1037.64832	-1237.42493	1767.57715	-3357.37671	2845.83252	1034.07764 
4	0.030	-1095.24976	-1122.17310	1685.03845	-956.52319	-1169.73230	1666.80029	-1146.35828	-1249.47668	1633.14880	-1018.23248	-1311.46094	1615.25623	-1081.36145	-1358.21326	1506.17664	-1072.49866	-1446.69336	1234.40393	-1083.45850	-1229.22852	1420.78381	-1074.85608	-1197.71277	1245.00330	-1018.45624	-1442.60571	1337.26514	-1254.16309	-1286.04199	1472.00671	-1357.52734	-1286.90576	1286.15039	-1394.03601	-1262.70337	1149.88257	-1420.20105	-1206.93091	1032.03589	-1402.21472	-1108.80688	938.61792	-1431.81311	-1150.79822	922.65039	-1444.20618	-1106.35645	876.37646	-891.04053	-1296.00793	1461.71338	-808.82745	-1356.98645	1278.61682	-786.89227	-1364.51624	1133.37317	-761.31812	-1345.70532	1015.17828	-771.45868	-1300.46667	886.61761	-745.77850	-1351.28894	885.81287	-736.57697	-1316.46716	821.94641	-1203.57190	-1244.84949	948.94836	-946.78412	-1235.97681	947.74164	-1115.78918	-1446.96082	1012.41309	-1001.20026	-1450.97363	1013.02710	-1244.51794	-1376.06299	652.96710	-1213.35657	-1454.35303	462.78305	-1210.85352	-1554.33850	294.47131	-1176.50391	-1598.38306	72.39767	-1123.55505	-1634.94629	48.04002	-1201.37732	-1447.89624	24.70978	-858.89069	-1249.31873	661.62317	-891.28821	-1171.25146	467.74551	-873.72003	-1143.39197	283.84634	-894.97485	-1085.18445	97.17139	-952.28601	-1094.34705	34.05259	-881.29071	-922.13989	85.10091	-1035.11206	-1231.72009	1766.37952	-3357.29956	2845.87524	1034.13989 
5	0.040	-1092.14893	-1115.52026	1684.51660	-953.83350	-1163.67859	1665.77234	-1144.09558	-1242.54077	1632.23950	-1016.14838	-1304.82605	1613.56921	-1079.66736	-1350.58875	1504.83765	-1071.35034	-1439.48584	1233.38684	-1081.38574	-1221.46033	1419.32202	-1072.71436	-1190.38464	1243.88147	-1017.32208	-1435.40564	1335.93408	-1252.48792	-1278.18835	1470.97351	-1354.51306	-1280.43347	1284.18481	-1389.66821	-1257.42395	1147.32361	-1414.73828	-1202.49207	1028.50610	-1393.79578	-1103.55933	934.12256	-1424.93408	-1147.17566	918.75098	-1436.28345	-1103.02332	871.75482	-889.20087	-1288.92285	1460.05273	-807.36957	-1351.69275	1277.51563	-785.70898	-1359.67993	1132.06506	-759.98022	-1341.60229	1013.87964	-769.56305	-1296.60828	885.05389	-744.19513	-1347.97192	884.48602	-734.78351	-1313.48010	820.50372	-1202.81262	-1238.32019	947.52014	-945.77631	-1229.10291	946.33356	-1114.67126	-1440.28247	1011.29675	-1000.15320	-1444.15430	1011.88342	-1243.04480	-1372.89587	653.43280	-1212.96082	-1450.47107	462.55054	-1210.40759	-1552.09668	295.20511	-1176.48462	-1598.22815	73.70684	-1123.27100	-1634.67700	49.54625	-1201.49536	-1447.82996	24.66540	-857.79303	-1242.28333	660.14514	-890.90918	-1164.70203	466.29404	-874.17188	-1137.65930	282.13135	-896.09131	-1080.49548	95.45287	-953.59039	-1089.10364	32.23343	-880.47699	-917.85852	83.30410	-1032.46362	-1225.83948	1765.33337	-3357.46045	2845.90918	1034.15015 
6	0.050	-1089.20935	-1108.93372	1684.14172	-951.00977	-1157.37134	1664.84692	-1141.60486	-1235.36206	1631.35706	-1013.98462	-1298.16187	1612.35144	-1077.75488	-1343.29797	1503.85132	-1070.02051	-1432.13086	1232.43530	-1079.30981	-1214.00378	1418.35449	-1071.24255	-1182.94800	1242.61316	-1016.05408	-1428.12415	1335.03687	-1250.68713	-1270.22559	1469.91309	-1351.48083	-1274.03271	1282.63623	-1385.10803	-1252.27698	1144.84961	-1408.88879	-1198.20935	1025.08044	-1386.51038	-1100.04138	929.82642	-1417.87122	-1143.68127	914.84479	-1428.39661	-1100.09497	867.43311	-887.17841	-1281.94592	1458.71436	-805.94885	-1345.64453	1276.17554	-784.30042	-1354.65942	1130.76318	-758.28345	-1337.46655	1012.62860	-767.58234	-1292.92615	883.58954	-742.57190	-1344.55066	883.30817	-732.82874	-1310.36890	819.11700	-1201.94250	-1231.74829	946.23895	-945.12042	-1222.63354	944.91388	-1113.38770	-1433.36096	1010.20905	-998.98700	-1437.06128	1010.74854	-1242.41418	-1367.85852	652.90387	-1212.47034	-1446.30066	462.44708	-1209.89355	-1549.65710	296.13156	-1176.29663	-1597.40930	74.87515	-1123.08752	-1633.82104	50.58015	-1201.66150	-1447.73499	24.66346	-856.64880	-1234.83154	658.57629	-890.22449	-1158.38745	465.02853	-874.28113	-1132.34814	280.35489	-896.98737	-1076.67578	93.31470	-954.77637	-1085.25598	30.09764	-879.73029	-914.36078	80.52361	-1029.58911	-1219.65271	1764.27368	-3360.31543	2845.25244	1033.99707 
7	0.060	-1085.89319	-1102.05383	1683.73694	-948.02692	-1151.15564	1663.74329	-1138.95251	-1228.09705	1630.55066	-1011.56726	-1291.28467	1610.84131	-1075.72327	-1335.40613	1502.56750	-1068.52600	-1424.56116	1231.50000	-1077.49365	-1206.48523	1417.16028	-1069.83240	-1175.82776	1240.89893	-1014.49310	-1420.54761	1333.75830	-1248.61719	-1262.22729	1469.00110	-1348.26331	-1267.47363	1280.97852	-1380.57202	-1247.42651	1142.56030	-1403.31860	-1194.45105	1022.04987	-1379.15503	-1097.20898	925.98529	-1412.94739	-1141.70642	911.84814	-1420.13977	-1097.51221	862.85272	-885.19922	-1274.59534	1457.14746	-804.49109	-1339.47729	1274.93994	-782.76233	-1349.76025	1129.72534	-756.70105	-1332.97864	1011.39001	-765.36597	-1289.18518	882.10229	-741.04126	-1340.86682	882.05963	-730.85602	-1307.87219	818.04724	-1200.60522	-1224.16895	944.68817	-943.70203	-1214.45105	943.83221	-1111.93542	-1426.16138	1009.20581	-997.58710	-1429.73364	1009.77966	-1241.62976	-1362.73669	652.47644	-1212.05225	-1441.80042	462.30725	-1209.35107	-1546.83899	297.05356	-1176.40588	-1596.87463	75.96267	-1123.25452	-1633.73755	52.86269	-1201.82654	-1447.64514	24.60643	-855.14703	-1227.66797	657.21442	-889.70386	-1151.66992	463.61951	-874.41492	-1127.38049	278.60519	-897.90723	-1073.74231	91.22607	-956.03583	-1082.37756	28.10698	-879.33075	-912.01654	77.17891	-1026.61926	-1213.34961	1763.24927			 
